# xmcd
#
# Track frame offsets:
#	150
#	31582
#	60332
#	76589
#	99060
#	123410
#	142136
#	163083
#
# Disc length: 2698 seconds
#
# Revision: 3
# Processed by: cddbd v1.5.2PL0 Copyright (c) Steve Scherf et al.
# Submitted via: EZCDAudioConverter 2.1.7.1
#
DISCID=540a8808
DTITLE=Nick Cave and The Bad Seeds - Abattoir Blues Tour 2004 1/2
DYEAR=2007
DGENRE=
TTITLE0=O Children
TTITLE1=Hiding All Away
TTITLE2=Breathless
TTITLE3=Get Ready For Love
TTITLE4=Red Right Hand
TTITLE5=The Ship Song
TTITLE6=The Weeping Song
TTITLE7=Stagger Lee
EXTD=
EXTT0=
EXTT1=
EXTT2=
EXTT3=
EXTT4=
EXTT5=
EXTT6=
EXTT7=
PLAYORDER=
